<svg xmlns="http://www.w3.org/2000/svg" xmlns:xlink="http://www.w3.org/1999/xlink" viewBox="0 0 360 578"><defs><style>.cls-1{fill:url(#linear-gradient);}.cls-2{fill:url(#linear-gradient-2);}</style><linearGradient id="linear-gradient" x1="181" y1="51.9" x2="179.48" y2="411.78" gradientUnits="userSpaceOnUse"><stop offset="0" stop-color="#64748b"/><stop offset="1" stop-color="#334155"/></linearGradient><linearGradient id="linear-gradient-2" x1="180.75" y1="183.38" x2="179.67" y2="437.1" gradientUnits="userSpaceOnUse"><stop offset="0" stop-color="#00072a"/><stop offset="1" stop-color="#334155" stop-opacity="0.5"/></linearGradient></defs><g id="Layer_2" data-name="Layer 2"><g id="Layer_1-2" data-name="Layer 1"><polygon class="cls-1" points="338 21 338 0 21 0 21 21 0 21 0 556 22 556 22 578 338 578 338 556 360 556 360 21 338 21"/><path class="cls-2" d="M351,234V216h9V163H342V147H245v7H227v-7H198v17H180V147H160v17H142V147H72v8H54v-8H48v18H30V147H18v18H0V315H9v18H0V554H360V234ZM12,195H30v18H12Zm27,64H21V241H39Zm66-103h18v18H105Zm-51,9H72v18H54Zm31,69H67V216H85Zm13-61H80V155H98Zm7,13h18v18H105Zm34,64H121V232h18Zm18-58H139V174h18Zm14,12h18v18H171Zm27,64H180V250h18Zm8-103h18v18H206Zm12,58h18v18H218Zm36,64H236V269h18Zm0-114H236V155h18Zm24,68H260V223h18Zm0-46H260V177h18Zm4-40h18v18H282Zm31,58H295V195h18Zm23,37H318V232h18Zm6-64H324V168h18Z"/></g></g></svg>